<?xml version="1.0" encoding="iso-8859-1"?>
<!-- Generator: Adobe Illustrator 19.0.0, SVG Export Plug-In . SVG Version: 6.00 Build 0)  -->
<svg version="1.1" id="Layer_1" xmlns="http://www.w3.org/2000/svg" xmlns:xlink="http://www.w3.org/1999/xlink" x="0px" y="0px"
	 viewBox="0 0 512 512" style="enable-background:new 0 0 512 512;" xml:space="preserve">
<path style="fill:#FFE6B8;" d="M412.043,44.427c4.659,0,8.44,3.77,8.44,8.44c0,47.261-38.462,85.723-85.723,85.723h-78.757v-16.879
	h78.757c37.955,0,68.844-30.889,68.844-68.844C403.603,48.197,407.373,44.427,412.043,44.427z"/>
<path style="fill:#FFF3DC;" d="M256.002,121.711v16.879h-78.757c-47.261,0-85.723-38.462-85.723-85.723c0-4.67,3.781-8.44,8.44-8.44
	c4.67,0,8.44,3.77,8.44,8.44c0,37.955,30.889,68.844,68.844,68.844H256.002z"/>
<path style="fill:#FD830C;" d="M148.051,203.192c-11.703-12.479-26.433-22.483-43.615-28.739
	C68.034,161.209,29.234,167.904,0,188.958c2.791,10.994,7.224,21.515,13.121,31.17l131.704,29.788l28.647-10.388L148.051,203.192z"
	/>
<path style="fill:#FE9837;" d="M150.966,239.527l23.5,12.429l-21.452,13.16c-25.285,10.679-54.508,12.22-82.336,2.093
	c-24.947-9.081-44.729-26.061-57.557-47.081c15.585-12.794,36.447-18.713,52.798-18.713c9.081,0,18.207,1.575,26.973,4.76
	c11.77,4.287,22.033,11.05,30.529,20.097C127.369,237.547,139.702,243.477,150.966,239.527z"/>
<path style="fill:#FD830C;" d="M363.949,203.191c11.703-12.479,26.433-22.483,43.615-28.739
	c36.402-13.244,75.202-6.549,104.436,14.505c-2.791,10.994-7.224,21.515-13.121,31.17l-131.704,29.788l-28.647-10.388
	L363.949,203.191z"/>
<g>
	<path style="fill:#FE9837;" d="M361.034,239.526l-23.5,12.429l21.452,13.16c25.285,10.679,54.508,12.22,82.336,2.093
		c24.947-9.081,44.729-26.061,57.557-47.081c-15.585-12.794-36.447-18.713-52.798-18.713c-9.081,0-18.207,1.575-26.973,4.76
		c-11.77,4.287-22.033,11.05-30.529,20.097C384.631,237.546,372.298,243.476,361.034,239.526z"/>
	<path style="fill:#FE9837;" d="M363.949,203.191c0.113-16.53-3.927-41.646-31.462-57.951h-23.923l-0.315,268.793l40.138-22.505
		c1.35-17.667,5.334-65.884,8.935-109.106l-10.758-5.896l12.198-11.433C361.642,230.715,363.949,203.191,363.949,203.191z"/>
</g>
<path style="fill:#FFE6B8;" d="M319.501,391.527l-32.835,76.046h13.942c23.124,0,43.312-18.871,45.067-41.927
	c0.698-9.058,1.632-20.806,2.712-34.118H319.501z"/>
<path style="fill:#FFAD61;" d="M308.563,145.24c18.938,16.305,21.706,41.421,21.628,57.951c0,0-9.767,170.669-10.69,188.336
	l-77.942,22.505l-77.942-22.505c-1.35-17.667-5.334-65.884-8.935-109.106l10.758-8.665l-12.198-8.665
	c-2.881-34.377-5.187-61.901-5.187-61.901c-0.113-16.53,3.927-41.646,31.462-57.951L308.563,145.24L308.563,145.24z"/>
<path style="fill:#FFF3DC;" d="M163.617,391.527h155.883c-0.743,13.312-1.395,25.06-1.868,34.118
	c-1.204,23.057-15.079,41.927-30.967,41.927h-75.269c-23.124,0-43.312-18.871-45.067-41.927
	C165.631,416.587,164.697,404.839,163.617,391.527z"/>
<path style="fill:#FD830C;" d="M302.048,97.439H282.31v65.423h19.737c18.061,0,32.712-14.651,32.712-32.712
	C334.759,112.078,320.108,97.439,302.048,97.439z"/>
<g>
	<path style="fill:#FE9837;" d="M282.31,97.439c10.319,0,18.691,14.64,18.691,32.712c0,18.061-8.372,32.712-18.691,32.712h-72.355
		c-18.061,0-32.712-14.651-32.712-32.712c0-18.072,14.651-32.712,32.712-32.712H282.31z"/>
	<path style="fill:#FE9837;" d="M218.769,278.55l-65.755-13.435l1.664,17.309l53.93,11.248v15.228c0,4.662,3.778,8.44,8.44,8.44
		s8.439-3.778,8.439-8.44v-22.089C225.486,282.815,222.683,279.366,218.769,278.55z"/>
</g>
<polygon style="fill:#FD830C;" points="326.271,271.8 314.525,282.726 325.284,289.108 357.326,282.425 358.99,265.116 "/>
<g>
	<rect x="247.559" y="431.767" style="fill:#FFE6B8;" width="16.879" height="35.804"/>
	<polygon style="fill:#FFE6B8;" points="215.29,405.88 222.244,431.772 289.76,431.772 296.714,405.88 	"/>
</g>
<path style="fill:#87635C;" d="M289.76,440.212h-67.516c-3.818,0-7.16-2.563-8.15-6.251l-4.764-17.742
	c-1.209-4.501,1.461-9.13,5.962-10.339c4.495-1.205,9.129,1.459,10.339,5.962l3.087,11.491h54.571l3.087-11.491
	c1.209-4.502,5.841-7.168,10.339-5.962c4.501,1.209,7.17,5.838,5.962,10.339l-4.764,17.742
	C296.92,437.649,293.578,440.212,289.76,440.212z"/>
<path style="fill:#FE9837;" d="M293.235,278.55c-3.914,0.816-6.717,4.265-6.717,8.262v22.089c0,4.662,3.778,8.44,8.44,8.44
	s8.44-3.778,8.44-8.44v-15.228l21.888-4.565l0.987-17.307L293.235,278.55z"/>
<g>
</g>
<g>
</g>
<g>
</g>
<g>
</g>
<g>
</g>
<g>
</g>
<g>
</g>
<g>
</g>
<g>
</g>
<g>
</g>
<g>
</g>
<g>
</g>
<g>
</g>
<g>
</g>
<g>
</g>
</svg>
